<?xml version="1.0" encoding="utf-8"?>
<!-- Generator: Adobe Illustrator 19.1.0, SVG Export Plug-In . SVG Version: 6.00 Build 0)  -->
<!DOCTYPE svg PUBLIC "-//W3C//DTD SVG 1.1//EN" "http://www.w3.org/Graphics/SVG/1.1/DTD/svg11.dtd">
<svg version="1.1" id="Layer_1" xmlns="http://www.w3.org/2000/svg" xmlns:xlink="http://www.w3.org/1999/xlink" x="0px" y="0px"
	 viewBox="-40.1 89.6 251 222.8" style="enable-background:new -40.1 89.6 251 222.8;" xml:space="preserve">
<style type="text/css">
	.st0{fill:#FFFFFF;}
</style>
<g id="Layer_1_1_">
</g>
<g id="Layer_2">
	<path class="st0" d="M116.1,138.8c-5.6,2.9-7.4,3.9-11.2,3.4c-7.9-1-13.8-4.9-20.6-12.8c-4-4.6-6.8-10.7-10.3-16.1
		C61.2,93.3,39.7,84.9,20,92.1C13.4,94.5,6.8,98.7,2,105.8s-7.2,17.6-5,26.1c2,7.3,6.8,11.9,10.6,17.5c3.9,5.6,6.9,13.8,4.2,21.2
		c-1.7,4.9-5.3,7.9-8.8,10.5c-5.6,4.2-11.2,8.5-16.8,12.7c-6,4.5-11.9,9.1-17,15.5c-5,6.4-8.9,15.1-9.4,24.2
		c-0.4,7.7,1.8,14.9,4.7,21.1c5.3,10.9,14.2,19.4,24.1,17.8c3.6-0.6,7.2-2.5,10.8-2.8c5.7-0.5,11.2,3.4,14.1,9.9
		c2.7,6,3.1,13.6,5.6,19.8c5,12.4,17.5,16,27.6,10.8c10.1-5.2,18.1-17.4,23.7-30.5c1.8-4.2,2.9-8.5,6-10.6c1.7-1.2,4.5-2.2,9.4-0.2
		c6.9,2.8,8.8,9.3,15.2,13.4c10.5,6.6,22.9,6.9,34.6,3.3c12.1-3.7,23.7-11.3,34.8-19.7c8.8-6.6,17.4-13.8,25.7-21.5
		c5.6-5.1,11.5-11.2,13.7-19.9c2-7.7,0.6-16.1-2.5-22.6s-7.5-11.2-12-15.6c-7.9-7.8-16.9-15-27-14.3c-7.9,0.5-16.1,6-23.6,3
		c-0.9-0.4-2-1-2.5-2.2c-0.7-1.6-0.4-3.8-0.2-5.7c1-9.5-1.7-19.2-6.8-24.8C130.2,136.6,124.2,135.1,116.1,138.8L116.1,138.8z"/>
</g>
</svg>
