<?xml version="1.0" encoding="utf-8"?>
<!-- Generator: Adobe Illustrator 19.1.0, SVG Export Plug-In . SVG Version: 6.00 Build 0)  -->
<!DOCTYPE svg PUBLIC "-//W3C//DTD SVG 1.1//EN" "http://www.w3.org/Graphics/SVG/1.1/DTD/svg11.dtd">
<svg version="1.1" xmlns="http://www.w3.org/2000/svg" xmlns:xlink="http://www.w3.org/1999/xlink" x="0px" y="0px"
	 viewBox="0 0 319.3 222.8" style="enable-background:new 0 0 319.3 222.8;" xml:space="preserve">
<style type="text/css">
	.st0{fill:#FFFFFF;}
</style>
<g id="Layer_1">
</g>
<g id="Layer_2">
	<path class="st0" d="M198.6,49.3c-7.1,2.9-9.4,3.9-14.2,3.4c-10.1-1-17.6-4.9-26.2-12.8c-5.1-4.6-8.7-10.7-13.1-16.1
		c-16.4-20-43.7-28.4-68.8-21.2c-8.4,2.4-16.8,6.6-22.8,13.7s-9.1,17.6-6.3,26.1c2.5,7.3,8.6,11.9,13.5,17.5s8.8,13.8,5.4,21.2
		C64,86,59.3,89,54.9,91.6c-7.1,4.2-14.2,8.5-21.4,12.7c-7.6,4.5-15.2,9.1-21.6,15.5C5.6,126.2,0.6,134.9,0,144
		c-0.5,7.7,2.3,14.9,6,21.1c6.7,10.9,18.1,19.4,30.6,17.8c4.6-0.6,9.1-2.5,13.8-2.8c7.3-0.5,14.3,3.4,18,9.9c3.4,6,4,13.6,7.1,19.8
		c6.3,12.4,22.2,16,35.1,10.8c12.9-5.2,23-17.4,30.1-30.5c2.3-4.2,3.7-8.5,7.6-10.6c2.2-1.2,5.7-2.2,12-0.2
		c8.8,2.8,11.2,9.3,19.4,13.4c13.3,6.6,29.1,6.9,44,3.3c15.4-3.7,30.1-11.3,44.3-19.7c11.2-6.6,22.1-13.8,32.7-21.5
		c7.1-5.1,14.6-11.2,17.4-19.9c2.5-7.7,0.7-16.1-3.2-22.6s-9.6-11.2-15.3-15.6c-10.1-7.8-21.5-15-34.4-14.3c-10.1,0.5-20.5,6-30,3
		c-1.2-0.4-2.5-1-3.2-2.2c-0.9-1.6-0.5-3.8-0.2-5.7c1.3-9.5-2.1-19.2-8.7-24.8S208.9,45.6,198.6,49.3
		C198.6,49.3,198.6,49.3,198.6,49.3z"/>
</g>
</svg>
