<?xml version="1.0" encoding="utf-8"?>
<!-- Generator: Adobe Illustrator 19.1.0, SVG Export Plug-In . SVG Version: 6.00 Build 0)  -->
<!DOCTYPE svg PUBLIC "-//W3C//DTD SVG 1.1//EN" "http://www.w3.org/Graphics/SVG/1.1/DTD/svg11.dtd">
<svg version="1.1" xmlns="http://www.w3.org/2000/svg" xmlns:xlink="http://www.w3.org/1999/xlink" x="0px" y="0px"
	 viewBox="0 0 400.3 400.3" style="enable-background:new 0 0 400.3 400.3;" xml:space="preserve">
<style type="text/css">
	.st0{fill:#FFFFFF;}
</style>
<g id="Layer_1">
</g>
<g id="Layer_2">
	<circle class="st0" cx="98.8" cy="59.6" r="2.7"/>
	<circle class="st0" cx="44.9" cy="93.6" r="2.1"/>
	<circle class="st0" cx="54.3" cy="74.8" r="2.7"/>
	<circle class="st0" cx="118.4" cy="45.2" r="2.7"/>
	<circle class="st0" cx="126.3" cy="74.4" r="2.7"/>
	<circle class="st0" cx="128.9" cy="39.2" r="2.7"/>
	<circle class="st0" cx="44.9" cy="264.4" r="2.7"/>
	<circle class="st0" cx="53.5" cy="65.1" r="1.4"/>
	<circle class="st0" cx="46.4" cy="77.8" r="1.4"/>
	<circle class="st0" cx="81.5" cy="80.2" r="1.4"/>
	<circle class="st0" cx="78.9" cy="201.1" r="1.1"/>
	<circle class="st0" cx="43.5" cy="279.2" r="1.4"/>
	<circle class="st0" cx="29.5" cy="53.1" r="1.4"/>
	<circle class="st0" cx="43.1" cy="52.6" r="1.4"/>
	<circle class="st0" cx="34" cy="26.9" r="1.4"/>
	<circle class="st0" cx="101.2" cy="219.8" r="0.7"/>
	<circle class="st0" cx="69.7" cy="259.1" r="0.7"/>
	<circle class="st0" cx="79.5" cy="223.7" r="0.7"/>
	<circle class="st0" cx="83.3" cy="218.8" r="0.7"/>
	<circle class="st0" cx="51.9" cy="268" r="0.7"/>
	<circle class="st0" cx="105.6" cy="215.1" r="0.7"/>
	<circle class="st0" cx="318.6" cy="338" r="0.7"/>
	<circle class="st0" cx="99.7" cy="209.9" r="0.7"/>
	<circle class="st0" cx="87.7" cy="218.9" r="0.7"/>
	<path class="st0" d="M116.7,251.4c0.3,0.3,0.3,0.7,0,0.9c-0.3,0.2-0.7,0.2-1,0s-0.3-0.7,0-0.9C116,251.1,116.4,251.1,116.7,251.4z"
		/>
	<path class="st0" d="M137.5,237.7c0.3,0.3,0.3,0.7,0,0.9c-0.3,0.2-0.7,0.2-1,0s-0.3-0.7,0-0.9C136.8,237.5,137.3,237.5,137.5,237.7
		z"/>
	<circle class="st0" cx="146.7" cy="290.9" r="0.7"/>
	<circle class="st0" cx="96.3" cy="218.2" r="0.7"/>
	<circle class="st0" cx="85.7" cy="305.5" r="0.7"/>
	<circle class="st0" cx="93" cy="301.9" r="0.7"/>
	<circle class="st0" cx="82.9" cy="298.5" r="0.7"/>
	<circle class="st0" cx="84.1" cy="255.5" r="0.7"/>
	<circle class="st0" cx="182.3" cy="255.5" r="0.7"/>
	<path class="st0" d="M134.3,271.8c-0.2,0.3-0.7,0.4-1,0.2c-0.3-0.2-0.4-0.6-0.2-0.9c0.2-0.3,0.7-0.4,1-0.2
		C134.4,271.1,134.5,271.5,134.3,271.8z"/>
	<circle class="st0" cx="204" cy="234.8" r="0.7"/>
	<path class="st0" d="M143.4,252.2c-0.2,0.3-0.7,0.4-1,0.2s-0.4-0.6-0.2-0.9c0.2-0.3,0.7-0.4,1-0.2
		C143.6,251.5,143.6,251.9,143.4,252.2z"/>
	<circle class="st0" cx="175" cy="249.1" r="0.7"/>
	<circle class="st0" cx="83.1" cy="208.6" r="0.7"/>
	<circle class="st0" cx="93.1" cy="92.2" r="0.7"/>
	<circle class="st0" cx="91.9" cy="74.4" r="0.7"/>
	<circle class="st0" cx="93.5" cy="27.8" r="0.7"/>
	<circle class="st0" cx="110.3" cy="27.1" r="0.7"/>
	<circle class="st0" cx="86.1" cy="35.6" r="0.7"/>
	<circle class="st0" cx="95.4" cy="46.7" r="0.7"/>
	<circle class="st0" cx="100.2" cy="29.5" r="0.7"/>
	<circle class="st0" cx="131.1" cy="66.3" r="0.7"/>
	<circle class="st0" cx="144.9" cy="52.6" r="0.7"/>
	<circle class="st0" cx="141.3" cy="35.4" r="0.7"/>
	<circle class="st0" cx="160.6" cy="46.6" r="0.7"/>
	<circle class="st0" cx="125" cy="52.3" r="0.7"/>
	<circle class="st0" cx="112.2" cy="64" r="0.7"/>
	<circle class="st0" cx="136.6" cy="90.6" r="0.7"/>
	<circle class="st0" cx="132.5" cy="81.2" r="0.7"/>
	<circle class="st0" cx="145.2" cy="81.7" r="0.7"/>
	<circle class="st0" cx="143.3" cy="70.3" r="0.7"/>
	<circle class="st0" cx="98.2" cy="96.1" r="0.7"/>
	<circle class="st0" cx="102.7" cy="89.6" r="0.7"/>
	<circle class="st0" cx="92.3" cy="78.7" r="0.7"/>
	<circle class="st0" cx="94.1" cy="87.3" r="0.7"/>
	<circle class="st0" cx="102" cy="73" r="0.7"/>
	<circle class="st0" cx="29.2" cy="36.1" r="1.4"/>
	<circle class="st0" cx="39.3" cy="35.4" r="1.4"/>
	<circle class="st0" cx="33.5" cy="33.6" r="1.4"/>
	<circle class="st0" cx="112.7" cy="37" r="1.4"/>
	<circle class="st0" cx="89.6" cy="55.7" r="1.4"/>
	<circle class="st0" cx="91.1" cy="52.8" r="1.4"/>
	<circle class="st0" cx="70.9" cy="80.8" r="2.2"/>
	<circle class="st0" cx="25.4" cy="80.9" r="2.2"/>
	<circle class="st0" cx="98.9" cy="40.5" r="2.2"/>
	<ellipse class="st0" cx="139.7" cy="266.2" rx="1.4" ry="1.3"/>
	<ellipse class="st0" cx="132.9" cy="278" rx="2.2" ry="2"/>
	<circle class="st0" cx="73" cy="188.2" r="0.7"/>
	<circle class="st0" cx="76.9" cy="139.8" r="0.7"/>
	<circle class="st0" cx="60.4" cy="172.4" r="0.7"/>
	<circle class="st0" cx="98.5" cy="119.1" r="0.7"/>
	<circle class="st0" cx="86.7" cy="166.9" r="0.7"/>
	<circle class="st0" cx="87.4" cy="151.3" r="0.7"/>
	<circle class="st0" cx="69.5" cy="151.3" r="0.7"/>
	<circle class="st0" cx="69.5" cy="133.4" r="0.7"/>
	<circle class="st0" cx="76.2" cy="168.2" r="2.7"/>
	<circle class="st0" cx="78.9" cy="156.4" r="2.7"/>
	<circle class="st0" cx="66.4" cy="166.8" r="1.4"/>
	<circle class="st0" cx="59.6" cy="179.4" r="2.2"/>
	<circle class="st0" cx="355.3" cy="273.8" r="1.1"/>
	<circle class="st0" cx="377.6" cy="292.5" r="0.7"/>
	<circle class="st0" cx="359.8" cy="291.4" r="0.7"/>
	<circle class="st0" cx="382" cy="287.8" r="0.7"/>
	<circle class="st0" cx="376.2" cy="282.6" r="0.7"/>
	<circle class="st0" cx="364.1" cy="291.6" r="0.7"/>
	<circle class="st0" cx="372.8" cy="290.8" r="0.7"/>
	<circle class="st0" cx="359.5" cy="281.3" r="0.7"/>
	<circle class="st0" cx="349.4" cy="260.9" r="0.7"/>
	<circle class="st0" cx="353.3" cy="212.4" r="0.7"/>
	<circle class="st0" cx="336.8" cy="245" r="0.7"/>
	<circle class="st0" cx="363.2" cy="239.6" r="0.7"/>
	<circle class="st0" cx="363.9" cy="224" r="0.7"/>
	<circle class="st0" cx="346" cy="224" r="0.7"/>
	<circle class="st0" cx="352.6" cy="240.8" r="2.7"/>
	<circle class="st0" cx="355.4" cy="229.1" r="2.7"/>
	<circle class="st0" cx="342.8" cy="239.5" r="1.4"/>
	<circle class="st0" cx="336" cy="252.1" r="2.2"/>
	<circle class="st0" cx="57.5" cy="51.4" r="2.2"/>
	<circle class="st0" cx="60.6" cy="70.3" r="2.2"/>
	<circle class="st0" cx="70.2" cy="274.9" r="2.7"/>
	<circle class="st0" cx="65.6" cy="266.4" r="1.4"/>
	<circle class="st0" cx="64.3" cy="280.9" r="1.4"/>
	<circle class="st0" cx="50.9" cy="259.3" r="1.4"/>
	<circle class="st0" cx="90.5" cy="225.8" r="2.2"/>
	<circle class="st0" cx="74.1" cy="268.1" r="2.2"/>
	<circle class="st0" cx="75.8" cy="73.5" r="2.2"/>
	<circle class="st0" cx="302.3" cy="321.4" r="2.7"/>
	<circle class="st0" cx="312.1" cy="350.1" r="2.7"/>
	<circle class="st0" cx="312.4" cy="314.8" r="2.7"/>
	<circle class="st0" cx="293.1" cy="303.9" r="0.7"/>
	<circle class="st0" cx="316.4" cy="341.6" r="0.7"/>
	<circle class="st0" cx="329.3" cy="327.1" r="0.7"/>
	<circle class="st0" cx="324.6" cy="310.2" r="0.7"/>
	<circle class="st0" cx="344.5" cy="320.1" r="0.7"/>
	<circle class="st0" cx="309.4" cy="328.1" r="0.7"/>
	<circle class="st0" cx="297.5" cy="340.6" r="0.7"/>
	<circle class="st0" cx="323.6" cy="365.5" r="0.7"/>
	<circle class="st0" cx="318.8" cy="356.4" r="0.7"/>
	<circle class="st0" cx="331.6" cy="356.1" r="0.7"/>
	<circle class="st0" cx="328.9" cy="344.8" r="0.7"/>
	<circle class="st0" cx="289.7" cy="366.8" r="0.7"/>
	<circle class="st0" cx="296.2" cy="313.7" r="1.4"/>
	<circle class="st0" cx="99.3" cy="312.9" r="2.7"/>
	<circle class="st0" cx="64.3" cy="366.2" r="2.1"/>
	<circle class="st0" cx="65" cy="345.2" r="2.7"/>
	<circle class="st0" cx="60.3" cy="336.7" r="1.4"/>
	<circle class="st0" cx="59.1" cy="351.3" r="1.4"/>
	<circle class="st0" cx="92" cy="338.8" r="1.4"/>
	<circle class="st0" cx="33.4" cy="335.8" r="1.4"/>
	<circle class="st0" cx="45.7" cy="329.7" r="1.4"/>
	<circle class="st0" cx="26.6" cy="310" r="1.4"/>
	<circle class="st0" cx="107.6" cy="345" r="0.7"/>
	<circle class="st0" cx="99.1" cy="329.2" r="0.7"/>
	<circle class="st0" cx="113.9" cy="346.3" r="0.7"/>
	<circle class="st0" cx="115.3" cy="338.6" r="0.7"/>
	<circle class="st0" cx="101.3" cy="333" r="0.7"/>
	<circle class="st0" cx="106.4" cy="340" r="0.7"/>
	<circle class="st0" cx="107.7" cy="323.7" r="0.7"/>
	<circle class="st0" cx="26.2" cy="320.4" r="1.4"/>
	<circle class="st0" cx="35.1" cy="315.5" r="1.4"/>
	<circle class="st0" cx="29" cy="316.3" r="1.4"/>
	<circle class="st0" cx="89.2" cy="313.2" r="1.4"/>
	<circle class="st0" cx="89.4" cy="309.9" r="1.4"/>
	<circle class="st0" cx="82.7" cy="343.8" r="2.2"/>
	<circle class="st0" cx="41.3" cy="362.8" r="2.2"/>
	<circle class="st0" cx="58.2" cy="322.6" r="2.2"/>
	<circle class="st0" cx="68.9" cy="338.5" r="2.2"/>
	<circle class="st0" cx="84" cy="335.1" r="2.2"/>
	<circle class="st0" cx="300" cy="150.2" r="2.7"/>
	<circle class="st0" cx="211.7" cy="177.3" r="1.1"/>
	<circle class="st0" cx="333.7" cy="135.6" r="1.4"/>
	<circle class="st0" cx="189.2" cy="158.9" r="0.7"/>
	<circle class="st0" cx="193.4" cy="145.9" r="0.7"/>
	<circle class="st0" cx="210.8" cy="154.7" r="0.7"/>
	<circle class="st0" cx="207" cy="159.7" r="0.7"/>
	<circle class="st0" cx="357.6" cy="147.1" r="0.7"/>
	<circle class="st0" cx="184.8" cy="163.6" r="0.7"/>
	<circle class="st0" cx="190.8" cy="168.8" r="0.7"/>
	<circle class="st0" cx="202.7" cy="159.6" r="0.7"/>
	<circle class="st0" cx="261.3" cy="162.7" r="0.7"/>
	<circle class="st0" cx="195.7" cy="88.6" r="0.7"/>
	<circle class="st0" cx="219.7" cy="121.9" r="0.7"/>
	<circle class="st0" cx="194" cy="160.5" r="0.7"/>
	<circle class="st0" cx="258.9" cy="116.7" r="0.7"/>
	<circle class="st0" cx="251.6" cy="120.4" r="0.7"/>
	<circle class="st0" cx="261.7" cy="123.7" r="0.7"/>
	<circle class="st0" cx="179" cy="149.8" r="0.7"/>
	<circle class="st0" cx="207.4" cy="169.9" r="0.7"/>
	<circle class="st0" cx="185.6" cy="190" r="0.7"/>
	<circle class="st0" cx="198.3" cy="205.7" r="0.7"/>
	<circle class="st0" cx="204.2" cy="211.6" r="0.7"/>
	<circle class="st0" cx="182.6" cy="210.1" r="2.7"/>
	<circle class="st0" cx="212.1" cy="222.1" r="2.7"/>
	<circle class="st0" cx="192.4" cy="211.3" r="1.4"/>
	<circle class="st0" cx="199.1" cy="198.7" r="2.2"/>
	<circle class="st0" cx="380.2" cy="140.4" r="2.7"/>
	<circle class="st0" cx="344" cy="148.8" r="1.4"/>
	<circle class="st0" cx="312.9" cy="134.1" r="1.4"/>
	<circle class="st0" cx="212.2" cy="145.5" r="1.4"/>
	<circle class="st0" cx="199.8" cy="152.8" r="2.2"/>
	<circle class="st0" cx="353.7" cy="369.8" r="0.7"/>
	<circle class="st0" cx="357.9" cy="356.9" r="0.7"/>
	<circle class="st0" cx="375.3" cy="365.7" r="0.7"/>
	<circle class="st0" cx="371.5" cy="370.6" r="0.7"/>
	<circle class="st0" cx="349.3" cy="374.5" r="0.7"/>
	<circle class="st0" cx="355.3" cy="379.7" r="0.7"/>
	<circle class="st0" cx="367.2" cy="370.6" r="0.7"/>
	<circle class="st0" cx="358.5" cy="371.4" r="0.7"/>
	<circle class="st0" cx="343.5" cy="360.7" r="0.7"/>
	<circle class="st0" cx="371.9" cy="380.8" r="0.7"/>
	<circle class="st0" cx="376.7" cy="356.5" r="1.4"/>
	<circle class="st0" cx="364.3" cy="363.7" r="2.2"/>
	<circle class="st0" cx="222.9" cy="28.6" r="0.7"/>
	<circle class="st0" cx="227.2" cy="15.6" r="0.7"/>
	<circle class="st0" cx="244.6" cy="24.4" r="0.7"/>
	<circle class="st0" cx="240.8" cy="29.4" r="0.7"/>
	<circle class="st0" cx="218.6" cy="33.3" r="0.7"/>
	<circle class="st0" cx="224.5" cy="38.5" r="0.7"/>
	<circle class="st0" cx="236.5" cy="29.3" r="0.7"/>
	<circle class="st0" cx="227.8" cy="30.1" r="0.7"/>
	<circle class="st0" cx="212.8" cy="19.4" r="0.7"/>
	<circle class="st0" cx="241.1" cy="39.6" r="0.7"/>
	<circle class="st0" cx="246" cy="15.2" r="1.4"/>
	<circle class="st0" cx="233.5" cy="22.4" r="2.2"/>
	<circle class="st0" cx="370" cy="189" r="0.7"/>
	<circle class="st0" cx="374.2" cy="176.1" r="0.7"/>
	<circle class="st0" cx="391.6" cy="184.9" r="0.7"/>
	<circle class="st0" cx="387.8" cy="189.9" r="0.7"/>
	<circle class="st0" cx="365.6" cy="193.7" r="0.7"/>
	<circle class="st0" cx="371.5" cy="198.9" r="0.7"/>
	<circle class="st0" cx="383.5" cy="189.8" r="0.7"/>
	<circle class="st0" cx="374.8" cy="190.6" r="0.7"/>
	<circle class="st0" cx="359.8" cy="179.9" r="0.7"/>
	<circle class="st0" cx="388.2" cy="200" r="0.7"/>
	<circle class="st0" cx="393" cy="175.7" r="1.4"/>
	<circle class="st0" cx="380.5" cy="182.9" r="2.2"/>
	<circle class="st0" cx="335.4" cy="147.2" r="2.2"/>
	<circle class="st0" cx="245.3" cy="109.4" r="2.7"/>
	<circle class="st0" cx="279.7" cy="55.8" r="2.1"/>
	<circle class="st0" cx="279.2" cy="76.8" r="2.7"/>
	<circle class="st0" cx="283.9" cy="85.2" r="1.4"/>
	<circle class="st0" cx="285" cy="70.7" r="1.4"/>
	<circle class="st0" cx="252.3" cy="83.5" r="1.4"/>
	<circle class="st0" cx="310.9" cy="85.9" r="1.4"/>
	<circle class="st0" cx="298.7" cy="92.1" r="1.4"/>
	<circle class="st0" cx="382.4" cy="104.8" r="1.4"/>
	<circle class="st0" cx="236.7" cy="77.5" r="0.7"/>
	<circle class="st0" cx="245.2" cy="93.1" r="0.7"/>
	<circle class="st0" cx="230.3" cy="76.2" r="0.7"/>
	<circle class="st0" cx="229" cy="83.9" r="0.7"/>
	<circle class="st0" cx="243" cy="89.4" r="0.7"/>
	<circle class="st0" cx="237.8" cy="82.4" r="0.7"/>
	<circle class="st0" cx="236.7" cy="98.7" r="0.7"/>
	<circle class="st0" cx="382.8" cy="94.5" r="1.4"/>
	<circle class="st0" cx="309.5" cy="106.2" r="1.4"/>
	<circle class="st0" cx="315.5" cy="105.3" r="1.4"/>
	<circle class="st0" cx="255.3" cy="109" r="1.4"/>
	<circle class="st0" cx="255.1" cy="112.3" r="1.4"/>
	<circle class="st0" cx="261.6" cy="78.4" r="2.2"/>
	<circle class="st0" cx="302.7" cy="59" r="2.2"/>
	<circle class="st0" cx="286.2" cy="99.4" r="2.2"/>
	<circle class="st0" cx="275.4" cy="83.6" r="2.2"/>
	<circle class="st0" cx="260.3" cy="87.1" r="2.2"/>
	<circle class="st0" cx="159.6" cy="370" r="0.7"/>
	<circle class="st0" cx="198.8" cy="364.8" r="0.7"/>
	<circle class="st0" cx="191.5" cy="368.5" r="0.7"/>
	<circle class="st0" cx="185.1" cy="357.5" r="2.7"/>
	<circle class="st0" cx="219.5" cy="303.9" r="2.1"/>
	<circle class="st0" cx="219" cy="324.9" r="2.7"/>
	<circle class="st0" cx="223.8" cy="333.4" r="1.4"/>
	<circle class="st0" cx="224.9" cy="318.8" r="1.4"/>
	<circle class="st0" cx="192.1" cy="331.6" r="1.4"/>
	<circle class="st0" cx="250.7" cy="334" r="1.4"/>
	<circle class="st0" cx="238.5" cy="340.3" r="1.4"/>
	<circle class="st0" cx="176.5" cy="325.6" r="0.7"/>
	<circle class="st0" cx="185.1" cy="341.2" r="0.7"/>
	<circle class="st0" cx="170.2" cy="324.3" r="0.7"/>
	<circle class="st0" cx="168.9" cy="332.1" r="0.7"/>
	<circle class="st0" cx="182.9" cy="337.5" r="0.7"/>
	<circle class="st0" cx="177.7" cy="330.5" r="0.7"/>
	<circle class="st0" cx="176.6" cy="346.8" r="0.7"/>
	<circle class="st0" cx="249.3" cy="354.3" r="1.4"/>
	<circle class="st0" cx="255.3" cy="353.4" r="1.4"/>
	<circle class="st0" cx="195.2" cy="357.2" r="1.4"/>
	<circle class="st0" cx="195" cy="360.5" r="1.4"/>
	<circle class="st0" cx="201.4" cy="326.5" r="2.2"/>
	<circle class="st0" cx="242.6" cy="307.1" r="2.2"/>
	<circle class="st0" cx="226.1" cy="347.5" r="2.2"/>
	<circle class="st0" cx="215.2" cy="331.7" r="2.2"/>
	<circle class="st0" cx="200.1" cy="335.2" r="2.2"/>
</g>
</svg>
